%TF.GenerationSoftware,KiCad,Pcbnew,8.0.1*%
%TF.CreationDate,2025-12-10T18:54:55+01:00*%
%TF.ProjectId,PowerBox2.2 KICAD,506f7765-7242-46f7-9832-2e32204b4943,rev?*%
%TF.SameCoordinates,Original*%
%TF.FileFunction,Soldermask,Top*%
%TF.FilePolarity,Negative*%
%FSLAX46Y46*%
G04 Gerber Fmt 4.6, Leading zero omitted, Abs format (unit mm)*
G04 Created by KiCad (PCBNEW 8.0.1) date 2025-12-10 18:54:55*
%MOMM*%
%LPD*%
G01*
G04 APERTURE LIST*
G04 Aperture macros list*
%AMRoundRect*
0 Rectangle with rounded corners*
0 $1 Rounding radius*
0 $2 $3 $4 $5 $6 $7 $8 $9 X,Y pos of 4 corners*
0 Add a 4 corners polygon primitive as box body*
4,1,4,$2,$3,$4,$5,$6,$7,$8,$9,$2,$3,0*
0 Add four circle primitives for the rounded corners*
1,1,$1+$1,$2,$3*
1,1,$1+$1,$4,$5*
1,1,$1+$1,$6,$7*
1,1,$1+$1,$8,$9*
0 Add four rect primitives between the rounded corners*
20,1,$1+$1,$2,$3,$4,$5,0*
20,1,$1+$1,$4,$5,$6,$7,0*
20,1,$1+$1,$6,$7,$8,$9,0*
20,1,$1+$1,$8,$9,$2,$3,0*%
%AMFreePoly0*
4,1,13,0.750000,1.250000,1.250000,1.250000,1.250000,-1.250000,0.750000,-1.250000,0.750000,-2.300000,-0.750000,-2.300000,-0.750000,-1.250000,-1.250000,-1.250000,-1.250000,1.250000,-0.750000,1.250000,-0.750000,2.300000,0.750000,2.300000,0.750000,1.250000,0.750000,1.250000,$1*%
G04 Aperture macros list end*
%ADD10RoundRect,0.100000X-0.100000X0.225000X-0.100000X-0.225000X0.100000X-0.225000X0.100000X0.225000X0*%
%ADD11RoundRect,0.249999X-0.450001X-1.425001X0.450001X-1.425001X0.450001X1.425001X-0.450001X1.425001X0*%
%ADD12RoundRect,0.162500X-0.162500X0.617500X-0.162500X-0.617500X0.162500X-0.617500X0.162500X0.617500X0*%
%ADD13RoundRect,0.250000X-0.450000X0.350000X-0.450000X-0.350000X0.450000X-0.350000X0.450000X0.350000X0*%
%ADD14R,3.000000X3.000000*%
%ADD15C,3.000000*%
%ADD16RoundRect,0.250000X0.350000X0.450000X-0.350000X0.450000X-0.350000X-0.450000X0.350000X-0.450000X0*%
%ADD17RoundRect,0.250000X0.450000X-0.350000X0.450000X0.350000X-0.450000X0.350000X-0.450000X-0.350000X0*%
%ADD18RoundRect,0.225000X-0.375000X0.225000X-0.375000X-0.225000X0.375000X-0.225000X0.375000X0.225000X0*%
%ADD19RoundRect,0.160000X-0.197500X-0.160000X0.197500X-0.160000X0.197500X0.160000X-0.197500X0.160000X0*%
%ADD20RoundRect,0.155000X-0.155000X0.212500X-0.155000X-0.212500X0.155000X-0.212500X0.155000X0.212500X0*%
%ADD21RoundRect,0.100000X-0.100000X0.680000X-0.100000X-0.680000X0.100000X-0.680000X0.100000X0.680000X0*%
%ADD22C,0.800000*%
%ADD23C,6.400000*%
%ADD24RoundRect,0.250001X-2.474999X0.799999X-2.474999X-0.799999X2.474999X-0.799999X2.474999X0.799999X0*%
%ADD25C,5.120000*%
%ADD26RoundRect,0.102000X-2.458000X-2.458000X2.458000X-2.458000X2.458000X2.458000X-2.458000X2.458000X0*%
%ADD27O,1.504000X2.804000*%
%ADD28R,2.200000X2.200000*%
%ADD29C,2.200000*%
%ADD30RoundRect,0.155000X0.155000X-0.212500X0.155000X0.212500X-0.155000X0.212500X-0.155000X-0.212500X0*%
%ADD31RoundRect,0.050000X-0.200000X0.650000X-0.200000X-0.650000X0.200000X-0.650000X0.200000X0.650000X0*%
%ADD32RoundRect,0.050050X-0.124950X0.299950X-0.124950X-0.299950X0.124950X-0.299950X0.124950X0.299950X0*%
%ADD33C,0.500000*%
%ADD34FreePoly0,270.000000*%
%ADD35RoundRect,0.250000X0.300000X-0.300000X0.300000X0.300000X-0.300000X0.300000X-0.300000X-0.300000X0*%
%ADD36RoundRect,0.250000X-0.412500X-0.650000X0.412500X-0.650000X0.412500X0.650000X-0.412500X0.650000X0*%
%ADD37RoundRect,0.056280X-0.345720X1.030720X-0.345720X-1.030720X0.345720X-1.030720X0.345720X1.030720X0*%
%ADD38RoundRect,0.250000X-0.475000X0.337500X-0.475000X-0.337500X0.475000X-0.337500X0.475000X0.337500X0*%
%ADD39RoundRect,0.250000X-0.650000X1.500000X-0.650000X-1.500000X0.650000X-1.500000X0.650000X1.500000X0*%
%ADD40RoundRect,0.160000X0.197500X0.160000X-0.197500X0.160000X-0.197500X-0.160000X0.197500X-0.160000X0*%
%ADD41R,1.270000X0.610000*%
%ADD42R,3.810000X3.910000*%
%ADD43R,1.020000X0.610000*%
%ADD44RoundRect,0.250000X0.475000X-0.337500X0.475000X0.337500X-0.475000X0.337500X-0.475000X-0.337500X0*%
%ADD45RoundRect,0.250000X-0.350000X-0.450000X0.350000X-0.450000X0.350000X0.450000X-0.350000X0.450000X0*%
%ADD46RoundRect,0.056280X-1.030720X-0.345720X1.030720X-0.345720X1.030720X0.345720X-1.030720X0.345720X0*%
%ADD47RoundRect,0.250000X-0.650000X0.412500X-0.650000X-0.412500X0.650000X-0.412500X0.650000X0.412500X0*%
%ADD48RoundRect,0.250001X0.799999X2.474999X-0.799999X2.474999X-0.799999X-2.474999X0.799999X-2.474999X0*%
%ADD49R,1.550000X1.300000*%
%ADD50RoundRect,0.249999X0.450001X1.425001X-0.450001X1.425001X-0.450001X-1.425001X0.450001X-1.425001X0*%
%ADD51RoundRect,0.250000X0.337500X0.475000X-0.337500X0.475000X-0.337500X-0.475000X0.337500X-0.475000X0*%
%ADD52RoundRect,0.375000X-0.375000X0.625000X-0.375000X-0.625000X0.375000X-0.625000X0.375000X0.625000X0*%
%ADD53RoundRect,0.500000X-1.400000X0.500000X-1.400000X-0.500000X1.400000X-0.500000X1.400000X0.500000X0*%
%ADD54C,1.422400*%
%ADD55C,2.819400*%
%ADD56RoundRect,0.155000X-0.212500X-0.155000X0.212500X-0.155000X0.212500X0.155000X-0.212500X0.155000X0*%
%ADD57RoundRect,0.160000X-0.160000X0.197500X-0.160000X-0.197500X0.160000X-0.197500X0.160000X0.197500X0*%
%ADD58RoundRect,0.062500X0.062500X-0.350000X0.062500X0.350000X-0.062500X0.350000X-0.062500X-0.350000X0*%
%ADD59RoundRect,0.062500X0.350000X-0.062500X0.350000X0.062500X-0.350000X0.062500X-0.350000X-0.062500X0*%
%ADD60R,2.600000X2.600000*%
%ADD61RoundRect,0.102000X-0.965000X-0.965000X0.965000X-0.965000X0.965000X0.965000X-0.965000X0.965000X0*%
%ADD62C,2.134000*%
%ADD63R,0.610000X1.270000*%
%ADD64R,3.910000X3.810000*%
%ADD65R,0.610000X1.020000*%
%ADD66RoundRect,0.120600X-0.281400X0.936400X-0.281400X-0.936400X0.281400X-0.936400X0.281400X0.936400X0*%
%ADD67RoundRect,0.250000X-0.337500X-0.475000X0.337500X-0.475000X0.337500X0.475000X-0.337500X0.475000X0*%
%ADD68RoundRect,0.249999X-1.425001X0.450001X-1.425001X-0.450001X1.425001X-0.450001X1.425001X0.450001X0*%
%ADD69C,2.600000*%
%ADD70RoundRect,0.250000X0.250000X-0.250000X0.250000X0.250000X-0.250000X0.250000X-0.250000X-0.250000X0*%
%ADD71RoundRect,0.250000X0.412500X0.650000X-0.412500X0.650000X-0.412500X-0.650000X0.412500X-0.650000X0*%
%ADD72RoundRect,0.237500X0.287500X0.237500X-0.287500X0.237500X-0.287500X-0.237500X0.287500X-0.237500X0*%
%ADD73RoundRect,0.250001X0.462499X0.624999X-0.462499X0.624999X-0.462499X-0.624999X0.462499X-0.624999X0*%
%ADD74RoundRect,0.237500X0.250000X0.237500X-0.250000X0.237500X-0.250000X-0.237500X0.250000X-0.237500X0*%
%ADD75RoundRect,0.250000X-0.450000X0.325000X-0.450000X-0.325000X0.450000X-0.325000X0.450000X0.325000X0*%
%ADD76RoundRect,0.100000X0.680000X0.100000X-0.680000X0.100000X-0.680000X-0.100000X0.680000X-0.100000X0*%
%ADD77C,1.854000*%
%ADD78R,1.500000X0.900000*%
%ADD79R,0.900000X1.500000*%
%ADD80RoundRect,0.150000X-0.587500X-0.150000X0.587500X-0.150000X0.587500X0.150000X-0.587500X0.150000X0*%
G04 APERTURE END LIST*
D10*
%TO.C,Q14*%
X177750000Y-67312500D03*
X177100000Y-67312500D03*
X176450000Y-67312500D03*
X176450000Y-69212500D03*
X177100000Y-69212500D03*
X177750000Y-69212500D03*
%TD*%
D11*
%TO.C,R8*%
X87600000Y-75695000D03*
X93700000Y-75695000D03*
%TD*%
D12*
%TO.C,U13*%
X177450000Y-56412500D03*
X176500000Y-56412500D03*
X175550000Y-56412500D03*
X175550000Y-59112500D03*
X176500000Y-59112500D03*
X177450000Y-59112500D03*
%TD*%
D11*
%TO.C,R14*%
X87600000Y-101695000D03*
X93700000Y-101695000D03*
%TD*%
D13*
%TO.C,R53*%
X117979000Y-82816000D03*
X117979000Y-84816000D03*
%TD*%
D14*
%TO.C,J12*%
X79400000Y-96560000D03*
D15*
X79400000Y-101640000D03*
%TD*%
D13*
%TO.C,R61*%
X115650000Y-135500000D03*
X115650000Y-137500000D03*
%TD*%
D16*
%TO.C,R12*%
X212900000Y-152000000D03*
X210900000Y-152000000D03*
%TD*%
D17*
%TO.C,R41*%
X117614000Y-62800000D03*
X117614000Y-60800000D03*
%TD*%
D18*
%TO.C,D2*%
X107600000Y-149800000D03*
X107600000Y-153100000D03*
%TD*%
D11*
%TO.C,R16*%
X200476000Y-129301000D03*
X206576000Y-129301000D03*
%TD*%
D19*
%TO.C,R37*%
X162452500Y-48100000D03*
X163647500Y-48100000D03*
%TD*%
D13*
%TO.C,R11*%
X162600000Y-84100000D03*
X162600000Y-86100000D03*
%TD*%
%TO.C,R52*%
X120519000Y-82800000D03*
X120519000Y-84800000D03*
%TD*%
D20*
%TO.C,C50*%
X124300000Y-48315000D03*
X124300000Y-49450000D03*
%TD*%
D21*
%TO.C,U10*%
X91010000Y-132095000D03*
X90360000Y-132095000D03*
X89700000Y-132095000D03*
X89050000Y-132095000D03*
X89050000Y-134795000D03*
X89700000Y-134795000D03*
X90360000Y-134795000D03*
X91010000Y-134795000D03*
%TD*%
D22*
%TO.C,H6*%
X229600000Y-47000000D03*
X230302944Y-45302944D03*
X230302944Y-48697056D03*
X232000000Y-44600000D03*
D23*
X232000000Y-47000000D03*
D22*
X232000000Y-49400000D03*
X233697056Y-45302944D03*
X233697056Y-48697056D03*
X234400000Y-47000000D03*
%TD*%
D14*
%TO.C,J7*%
X231900000Y-99700000D03*
D15*
X231900000Y-94620000D03*
%TD*%
D13*
%TO.C,R46*%
X120240000Y-101900000D03*
X120240000Y-103900000D03*
%TD*%
D24*
%TO.C,F1*%
X221900000Y-147725000D03*
X221900000Y-154675000D03*
%TD*%
D25*
%TO.C,J24*%
X88200000Y-155800000D03*
D26*
X99100000Y-155800000D03*
D27*
X103100000Y-164700000D03*
X84200000Y-164700000D03*
%TD*%
D28*
%TO.C,J6*%
X96650000Y-46750000D03*
D29*
X94110000Y-46750000D03*
X91570000Y-46750000D03*
X89030000Y-46750000D03*
%TD*%
D30*
%TO.C,C39*%
X120650000Y-51217500D03*
X120650000Y-50082500D03*
%TD*%
D14*
%TO.C,J13*%
X79400000Y-83560000D03*
D15*
X79400000Y-88640000D03*
%TD*%
D21*
%TO.C,U16*%
X91010000Y-145095000D03*
X90360000Y-145095000D03*
X89700000Y-145095000D03*
X89050000Y-145095000D03*
X89050000Y-147795000D03*
X89700000Y-147795000D03*
X90360000Y-147795000D03*
X91010000Y-147795000D03*
%TD*%
D31*
%TO.C,U22*%
X151895000Y-110050000D03*
D32*
X150920000Y-109700000D03*
X150270000Y-109700000D03*
X149620000Y-109700000D03*
X148970000Y-109700000D03*
X148320000Y-109700000D03*
D31*
X147595000Y-110050000D03*
X147595000Y-114050000D03*
D32*
X148320000Y-114400000D03*
X148970000Y-114400000D03*
X149620000Y-114400000D03*
X150270000Y-114400000D03*
X150920000Y-114400000D03*
D31*
X151895000Y-114050000D03*
D33*
X150700000Y-111100000D03*
X149750000Y-111100000D03*
X148800000Y-111100000D03*
X151650000Y-112050000D03*
X150700000Y-112050000D03*
X149750000Y-112050000D03*
D34*
X149750000Y-112050000D03*
D33*
X148800000Y-112050000D03*
X147850000Y-112050000D03*
X150700000Y-113000000D03*
X149750000Y-113000000D03*
X148800000Y-113000000D03*
%TD*%
D14*
%TO.C,J17*%
X79400000Y-135560000D03*
D15*
X79400000Y-140640000D03*
%TD*%
D14*
%TO.C,J19*%
X231900000Y-73324000D03*
D15*
X231900000Y-68244000D03*
%TD*%
D35*
%TO.C,D5*%
X132650000Y-137250000D03*
X132650000Y-134450000D03*
%TD*%
D36*
%TO.C,C3*%
X154237500Y-113850000D03*
X157362500Y-113850000D03*
%TD*%
D14*
%TO.C,J3*%
X231838000Y-130385000D03*
D15*
X231838000Y-135465000D03*
%TD*%
D37*
%TO.C,U20*%
X121424000Y-66191000D03*
X120154000Y-66191000D03*
X118884000Y-66191000D03*
X117614000Y-66191000D03*
X117614000Y-71131000D03*
X118884000Y-71131000D03*
X120154000Y-71131000D03*
X121424000Y-71131000D03*
%TD*%
D38*
%TO.C,C30*%
X185750000Y-89750000D03*
X185750000Y-91825000D03*
%TD*%
D20*
%TO.C,C52*%
X190250000Y-65677500D03*
X190250000Y-66812500D03*
%TD*%
D39*
%TO.C,D6*%
X148000000Y-99000000D03*
X148000000Y-104000000D03*
%TD*%
D17*
%TO.C,R48*%
X120748000Y-122454000D03*
X120748000Y-120454000D03*
%TD*%
D40*
%TO.C,R36*%
X167650000Y-53550000D03*
X166455000Y-53550000D03*
%TD*%
D41*
%TO.C,Q17*%
X205230000Y-81895000D03*
X205230000Y-83165000D03*
X205230000Y-84435000D03*
X205230000Y-85705000D03*
D42*
X208590000Y-83800000D03*
D43*
X210695000Y-81895000D03*
X210695000Y-83165000D03*
X210695000Y-84435000D03*
X210695000Y-85705000D03*
%TD*%
D38*
%TO.C,C16*%
X85700000Y-118500000D03*
X85700000Y-120575000D03*
%TD*%
D44*
%TO.C,C34*%
X123700000Y-108825000D03*
X123700000Y-106750000D03*
%TD*%
D45*
%TO.C,R28*%
X128950000Y-120350000D03*
X130950000Y-120350000D03*
%TD*%
D41*
%TO.C,Q10*%
X102600000Y-116600000D03*
X102600000Y-115330000D03*
X102600000Y-114060000D03*
X102600000Y-112790000D03*
D42*
X99240000Y-114695000D03*
D43*
X97135000Y-116600000D03*
X97135000Y-115330000D03*
X97135000Y-114060000D03*
X97135000Y-112790000D03*
%TD*%
D22*
%TO.C,H8*%
X229600000Y-164000000D03*
X230302944Y-162302944D03*
X230302944Y-165697056D03*
X232000000Y-161600000D03*
D23*
X232000000Y-164000000D03*
D22*
X232000000Y-166400000D03*
X233697056Y-162302944D03*
X233697056Y-165697056D03*
X234400000Y-164000000D03*
%TD*%
D38*
%TO.C,C19*%
X199250000Y-133912500D03*
X199250000Y-135987500D03*
%TD*%
D28*
%TO.C,J9*%
X168550000Y-77050000D03*
D29*
X168550000Y-74510000D03*
X168550000Y-71970000D03*
X168550000Y-69430000D03*
X168550000Y-66890000D03*
X168550000Y-64350000D03*
X168550000Y-61810000D03*
X168550000Y-59270000D03*
%TD*%
D41*
%TO.C,Q6*%
X102570000Y-64600000D03*
X102570000Y-63330000D03*
X102570000Y-62060000D03*
X102570000Y-60790000D03*
D42*
X99210000Y-62695000D03*
D43*
X97105000Y-64600000D03*
X97105000Y-63330000D03*
X97105000Y-62060000D03*
X97105000Y-60790000D03*
%TD*%
D46*
%TO.C,U1*%
X188410000Y-131670000D03*
X188410000Y-132940000D03*
X188410000Y-134210000D03*
X188410000Y-135480000D03*
X193350000Y-135480000D03*
X193350000Y-134210000D03*
X193350000Y-132940000D03*
X193350000Y-131670000D03*
%TD*%
D38*
%TO.C,C22*%
X124329000Y-87902999D03*
X124329000Y-89977999D03*
%TD*%
D21*
%TO.C,U18*%
X203860000Y-134100000D03*
X203210000Y-134100000D03*
X202550000Y-134100000D03*
X201900000Y-134100000D03*
X201900000Y-136800000D03*
X202550000Y-136800000D03*
X203210000Y-136800000D03*
X203860000Y-136800000D03*
%TD*%
D38*
%TO.C,C8*%
X85900000Y-92400000D03*
X85900000Y-94475000D03*
%TD*%
%TO.C,C44*%
X127250000Y-48225000D03*
X127250000Y-50300000D03*
%TD*%
D47*
%TO.C,C56*%
X131500000Y-99087500D03*
X131500000Y-102212500D03*
%TD*%
D44*
%TO.C,C37*%
X196400000Y-95975000D03*
X196400000Y-93900000D03*
%TD*%
D40*
%TO.C,R2*%
X127994500Y-53975000D03*
X126799500Y-53975000D03*
%TD*%
D13*
%TO.C,R21*%
X169300000Y-84050000D03*
X169300000Y-86050000D03*
%TD*%
D44*
%TO.C,C4*%
X87250000Y-81787500D03*
X87250000Y-79712500D03*
%TD*%
D18*
%TO.C,D3*%
X119000000Y-150000000D03*
X119000000Y-153300000D03*
%TD*%
D48*
%TO.C,F3*%
X222883000Y-58465000D03*
X215933000Y-58465000D03*
%TD*%
D49*
%TO.C,SW2*%
X113447000Y-53431000D03*
X104972000Y-53431000D03*
X113447000Y-48681000D03*
X104972000Y-48681000D03*
%TD*%
D14*
%TO.C,J14*%
X79400000Y-122560000D03*
D15*
X79400000Y-127640000D03*
%TD*%
D50*
%TO.C,R18*%
X206179000Y-110623000D03*
X200079000Y-110623000D03*
%TD*%
D51*
%TO.C,C7*%
X145450000Y-113975000D03*
X143375000Y-113975000D03*
%TD*%
D38*
%TO.C,C29*%
X188150000Y-89787500D03*
X188150000Y-91862500D03*
%TD*%
D48*
%TO.C,F6*%
X222756000Y-83611000D03*
X215806000Y-83611000D03*
%TD*%
D41*
%TO.C,Q16*%
X205200000Y-56590000D03*
X205200000Y-57860000D03*
X205200000Y-59130000D03*
X205200000Y-60400000D03*
D42*
X208560000Y-58495000D03*
D43*
X210665000Y-56590000D03*
X210665000Y-57860000D03*
X210665000Y-59130000D03*
X210665000Y-60400000D03*
%TD*%
D41*
%TO.C,Q8*%
X102600000Y-90600000D03*
X102600000Y-89330000D03*
X102600000Y-88060000D03*
X102600000Y-86790000D03*
D42*
X99240000Y-88695000D03*
D43*
X97135000Y-90600000D03*
X97135000Y-89330000D03*
X97135000Y-88060000D03*
X97135000Y-86790000D03*
%TD*%
D45*
%TO.C,R33*%
X146375000Y-117000000D03*
X148375000Y-117000000D03*
%TD*%
D52*
%TO.C,U15*%
X139650000Y-99450000D03*
X137350000Y-99450000D03*
D53*
X137350000Y-105750000D03*
D52*
X135050000Y-99450000D03*
%TD*%
D41*
%TO.C,Q7*%
X102600000Y-103600000D03*
X102600000Y-102330000D03*
X102600000Y-101060000D03*
X102600000Y-99790000D03*
D42*
X99240000Y-101695000D03*
D43*
X97135000Y-103600000D03*
X97135000Y-102330000D03*
X97135000Y-101060000D03*
X97135000Y-99790000D03*
%TD*%
D21*
%TO.C,U4*%
X91340000Y-68445000D03*
X90690000Y-68445000D03*
X90030000Y-68445000D03*
X89380000Y-68445000D03*
X89380000Y-71145000D03*
X90030000Y-71145000D03*
X90690000Y-71145000D03*
X91340000Y-71145000D03*
%TD*%
D38*
%TO.C,C26*%
X126758000Y-66283500D03*
X126758000Y-68358500D03*
%TD*%
D21*
%TO.C,U3*%
X91340000Y-81445000D03*
X90690000Y-81445000D03*
X90030000Y-81445000D03*
X89380000Y-81445000D03*
X89380000Y-84145000D03*
X90030000Y-84145000D03*
X90690000Y-84145000D03*
X91340000Y-84145000D03*
%TD*%
D41*
%TO.C,Q4*%
X205200000Y-68895000D03*
X205200000Y-70165000D03*
X205200000Y-71435000D03*
X205200000Y-72705000D03*
D42*
X208560000Y-70800000D03*
D43*
X210665000Y-68895000D03*
X210665000Y-70165000D03*
X210665000Y-71435000D03*
X210665000Y-72705000D03*
%TD*%
D14*
%TO.C,J18*%
X231900000Y-61132000D03*
D15*
X231900000Y-56052000D03*
%TD*%
D14*
%TO.C,J23*%
X79400000Y-70560000D03*
D15*
X79400000Y-75640000D03*
%TD*%
D44*
%TO.C,C35*%
X121150000Y-108787500D03*
X121150000Y-106712500D03*
%TD*%
D37*
%TO.C,U26*%
X121789000Y-87972999D03*
X120519000Y-87972999D03*
X119249000Y-87972999D03*
X117979000Y-87972999D03*
X117979000Y-92912999D03*
X119249000Y-92912999D03*
X120519000Y-92912999D03*
X121789000Y-92912999D03*
%TD*%
D41*
%TO.C,Q2*%
X211068000Y-109480000D03*
X211068000Y-110750000D03*
X211068000Y-112020000D03*
X211068000Y-113290000D03*
D42*
X214428000Y-111385000D03*
D43*
X216533000Y-109480000D03*
X216533000Y-110750000D03*
X216533000Y-112020000D03*
X216533000Y-113290000D03*
%TD*%
D45*
%TO.C,R1*%
X126381000Y-56769000D03*
X128381000Y-56769000D03*
%TD*%
D54*
%TO.C,J22*%
X186319998Y-52710000D03*
X188819998Y-52710000D03*
X188819998Y-50709999D03*
X186319998Y-50709999D03*
D55*
X193589996Y-48000000D03*
X181550000Y-48000000D03*
%TD*%
D56*
%TO.C,C55*%
X184350000Y-72112500D03*
X185485000Y-72112500D03*
%TD*%
D45*
%TO.C,R27*%
X128900000Y-127400000D03*
X130900000Y-127400000D03*
%TD*%
D49*
%TO.C,SW1*%
X179600000Y-74250000D03*
X188075000Y-74250000D03*
X179600000Y-79000000D03*
X188075000Y-79000000D03*
%TD*%
D16*
%TO.C,R19*%
X119900000Y-155600000D03*
X117900000Y-155600000D03*
%TD*%
D17*
%TO.C,R55*%
X118100000Y-98250000D03*
X118100000Y-96250000D03*
%TD*%
D24*
%TO.C,F4*%
X221900000Y-111225000D03*
X221900000Y-118175000D03*
%TD*%
D38*
%TO.C,C53*%
X192250000Y-66025000D03*
X192250000Y-68100000D03*
%TD*%
D13*
%TO.C,R47*%
X117800000Y-101900000D03*
X117800000Y-103900000D03*
%TD*%
D11*
%TO.C,R9*%
X87600000Y-62695000D03*
X93700000Y-62695000D03*
%TD*%
D57*
%TO.C,R24*%
X122550000Y-48305000D03*
X122550000Y-49500000D03*
%TD*%
D14*
%TO.C,J2*%
X79400000Y-57560000D03*
D15*
X79400000Y-62640000D03*
%TD*%
D24*
%TO.C,F2*%
X222200000Y-130025000D03*
X222200000Y-136975000D03*
%TD*%
D21*
%TO.C,U7*%
X91010000Y-93095000D03*
X90360000Y-93095000D03*
X89700000Y-93095000D03*
X89050000Y-93095000D03*
X89050000Y-95795000D03*
X89700000Y-95795000D03*
X90360000Y-95795000D03*
X91010000Y-95795000D03*
%TD*%
D17*
%TO.C,R6*%
X161000000Y-55590000D03*
X161000000Y-53590000D03*
%TD*%
D21*
%TO.C,U11*%
X91010000Y-119095000D03*
X90360000Y-119095000D03*
X89700000Y-119095000D03*
X89050000Y-119095000D03*
X89050000Y-121795000D03*
X89700000Y-121795000D03*
X90360000Y-121795000D03*
X91010000Y-121795000D03*
%TD*%
D58*
%TO.C,U14*%
X181800000Y-67537500D03*
X182300000Y-67537500D03*
X182800000Y-67537500D03*
X183300000Y-67537500D03*
X183800000Y-67537500D03*
X184300000Y-67537500D03*
D59*
X184987500Y-66850000D03*
X184987500Y-66350000D03*
X184987500Y-65850000D03*
X184987500Y-65350000D03*
X184987500Y-64850000D03*
X184987500Y-64350000D03*
D58*
X184300000Y-63662500D03*
X183800000Y-63662500D03*
X183300000Y-63662500D03*
X182800000Y-63662500D03*
X182300000Y-63662500D03*
X181800000Y-63662500D03*
D59*
X181112500Y-64350000D03*
X181112500Y-64850000D03*
X181112500Y-65350000D03*
X181112500Y-65850000D03*
X181112500Y-66350000D03*
X181112500Y-66850000D03*
D60*
X183050000Y-65600000D03*
%TD*%
D38*
%TO.C,C32*%
X124850000Y-131337500D03*
X124850000Y-133412500D03*
%TD*%
%TO.C,C21*%
X198600000Y-114825000D03*
X198600000Y-116900000D03*
%TD*%
D28*
%TO.C,J11*%
X182310000Y-103450000D03*
D29*
X179770000Y-103450000D03*
X177230000Y-103450000D03*
X174690000Y-103450000D03*
X172150000Y-103450000D03*
X169610000Y-103450000D03*
X167070000Y-103450000D03*
X164530000Y-103450000D03*
%TD*%
D40*
%TO.C,R35*%
X167647500Y-54850000D03*
X166452500Y-54850000D03*
%TD*%
D13*
%TO.C,R40*%
X119900000Y-60800000D03*
X119900000Y-62800000D03*
%TD*%
D45*
%TO.C,R13*%
X208900000Y-116400000D03*
X210900000Y-116400000D03*
%TD*%
D41*
%TO.C,Q1*%
X211010000Y-145533000D03*
X211010000Y-146803000D03*
X211010000Y-148073000D03*
X211010000Y-149343000D03*
D42*
X214370000Y-147438000D03*
D43*
X216475000Y-145533000D03*
X216475000Y-146803000D03*
X216475000Y-148073000D03*
X216475000Y-149343000D03*
%TD*%
D37*
%TO.C,U29*%
X122320000Y-132085000D03*
X121050000Y-132085000D03*
X119780000Y-132085000D03*
X118510000Y-132085000D03*
X118510000Y-137025000D03*
X119780000Y-137025000D03*
X121050000Y-137025000D03*
X122320000Y-137025000D03*
%TD*%
D48*
%TO.C,F7*%
X222575000Y-96900000D03*
X215625000Y-96900000D03*
%TD*%
D61*
%TO.C,U6*%
X132800000Y-51400000D03*
D62*
X132800000Y-53940000D03*
X132800000Y-56480000D03*
X132800000Y-59020000D03*
X132800000Y-61560000D03*
X132800000Y-64100000D03*
X132800000Y-66640000D03*
X132800000Y-69180000D03*
X132800000Y-71720000D03*
X132800000Y-74260000D03*
X132800000Y-76800000D03*
X132800000Y-79340000D03*
X132800000Y-81880000D03*
X132800000Y-84420000D03*
X132800000Y-86960000D03*
X158200000Y-86960000D03*
X158200000Y-84420000D03*
X158200000Y-81880000D03*
X158200000Y-79340000D03*
X158200000Y-76800000D03*
X158200000Y-74260000D03*
X158200000Y-71720000D03*
X158200000Y-69180000D03*
X158200000Y-66640000D03*
X158200000Y-64100000D03*
X158200000Y-61560000D03*
X158200000Y-59020000D03*
X158200000Y-56480000D03*
X158200000Y-53940000D03*
D61*
X158200000Y-51400000D03*
%TD*%
D16*
%TO.C,R3*%
X181750000Y-90387500D03*
X179750000Y-90387500D03*
%TD*%
D38*
%TO.C,C10*%
X86000000Y-105600000D03*
X86000000Y-107675000D03*
%TD*%
D63*
%TO.C,Q3*%
X114170000Y-154625000D03*
X112900000Y-154625000D03*
X111630000Y-154625000D03*
X110360000Y-154625000D03*
D64*
X112265000Y-157985000D03*
D65*
X114170000Y-160090000D03*
X112900000Y-160090000D03*
X111630000Y-160090000D03*
X110360000Y-160090000D03*
%TD*%
D66*
%TO.C,U8*%
X179320000Y-114330000D03*
X178050000Y-114330000D03*
X176780000Y-114330000D03*
X175510000Y-114330000D03*
X174240000Y-114330000D03*
X172970000Y-114330000D03*
X171700000Y-114330000D03*
X170430000Y-114330000D03*
X169160000Y-114330000D03*
X167890000Y-114330000D03*
X166620000Y-114330000D03*
X165350000Y-114330000D03*
X164080000Y-114330000D03*
X162810000Y-114330000D03*
X162810000Y-123550000D03*
X164080000Y-123550000D03*
X165350000Y-123550000D03*
X166620000Y-123550000D03*
X167890000Y-123550000D03*
X169160000Y-123550000D03*
X170430000Y-123550000D03*
X171700000Y-123550000D03*
X172970000Y-123550000D03*
X174240000Y-123550000D03*
X175510000Y-123550000D03*
X176780000Y-123550000D03*
X178050000Y-123550000D03*
X179320000Y-123550000D03*
%TD*%
D67*
%TO.C,C51*%
X191375000Y-63412500D03*
X193450000Y-63412500D03*
%TD*%
D68*
%TO.C,R32*%
X201600000Y-98350000D03*
X201600000Y-104450000D03*
%TD*%
D13*
%TO.C,R5*%
X161925000Y-59579000D03*
X161925000Y-61579000D03*
%TD*%
D41*
%TO.C,Q9*%
X102600000Y-129600000D03*
X102600000Y-128330000D03*
X102600000Y-127060000D03*
X102600000Y-125790000D03*
D42*
X99240000Y-127695000D03*
D43*
X97135000Y-129600000D03*
X97135000Y-128330000D03*
X97135000Y-127060000D03*
X97135000Y-125790000D03*
%TD*%
D37*
%TO.C,U23*%
X121510000Y-111704000D03*
X120240000Y-111704000D03*
X118970000Y-111704000D03*
X117700000Y-111704000D03*
X117700000Y-116644000D03*
X118970000Y-116644000D03*
X120240000Y-116644000D03*
X121510000Y-116644000D03*
%TD*%
D60*
%TO.C,J16*%
X170680000Y-160300000D03*
D69*
X165600000Y-160300000D03*
X160520000Y-160300000D03*
X155440000Y-160300000D03*
%TD*%
D38*
%TO.C,C20*%
X200200000Y-155525000D03*
X200200000Y-157600000D03*
%TD*%
D17*
%TO.C,R30*%
X218400000Y-54000000D03*
X218400000Y-52000000D03*
%TD*%
%TO.C,R49*%
X117700000Y-122454000D03*
X117700000Y-120454000D03*
%TD*%
D48*
%TO.C,F5*%
X222756000Y-70784000D03*
X215806000Y-70784000D03*
%TD*%
D44*
%TO.C,C28*%
X192300000Y-129137500D03*
X192300000Y-127062500D03*
%TD*%
D41*
%TO.C,Q13*%
X211460000Y-128099000D03*
X211460000Y-129369000D03*
X211460000Y-130639000D03*
X211460000Y-131909000D03*
D42*
X214820000Y-130004000D03*
D43*
X216925000Y-128099000D03*
X216925000Y-129369000D03*
X216925000Y-130639000D03*
X216925000Y-131909000D03*
%TD*%
D50*
%TO.C,R15*%
X93700000Y-88695000D03*
X87600000Y-88695000D03*
%TD*%
D38*
%TO.C,C6*%
X86600000Y-68800000D03*
X86600000Y-70875000D03*
%TD*%
D44*
%TO.C,C23*%
X182341000Y-117797500D03*
X182341000Y-115722500D03*
%TD*%
D70*
%TO.C,D4*%
X188250000Y-65712500D03*
X188250000Y-63212500D03*
%TD*%
D71*
%TO.C,C38*%
X137312500Y-109550000D03*
X134187500Y-109550000D03*
%TD*%
D72*
%TO.C,D1*%
X167375000Y-47900000D03*
X165625000Y-47900000D03*
%TD*%
D38*
%TO.C,C12*%
X85900000Y-145162500D03*
X85900000Y-147237500D03*
%TD*%
D28*
%TO.C,J25*%
X208575000Y-47250000D03*
D29*
X206035000Y-47250000D03*
X203495000Y-47250000D03*
X200955000Y-47250000D03*
%TD*%
D73*
%TO.C,F9*%
X190737500Y-59612500D03*
X187762500Y-59612500D03*
%TD*%
D50*
%TO.C,R17*%
X206948500Y-146900000D03*
X200848500Y-146900000D03*
%TD*%
D74*
%TO.C,R34*%
X148462500Y-119275000D03*
X146637500Y-119275000D03*
%TD*%
D38*
%TO.C,C18*%
X85900000Y-131500000D03*
X85900000Y-133575000D03*
%TD*%
D41*
%TO.C,Q12*%
X102600000Y-142600000D03*
X102600000Y-141330000D03*
X102600000Y-140060000D03*
X102600000Y-138790000D03*
D42*
X99240000Y-140695000D03*
D43*
X97135000Y-142600000D03*
X97135000Y-141330000D03*
X97135000Y-140060000D03*
X97135000Y-138790000D03*
%TD*%
D14*
%TO.C,J20*%
X231900000Y-86151000D03*
D15*
X231900000Y-81071000D03*
%TD*%
D28*
%TO.C,J10*%
X162070000Y-134100000D03*
D29*
X164610000Y-134100000D03*
X167150000Y-134100000D03*
X169690000Y-134100000D03*
X172230000Y-134100000D03*
X174770000Y-134100000D03*
X177310000Y-134100000D03*
X179850000Y-134100000D03*
%TD*%
D46*
%TO.C,U2*%
X180110000Y-83617500D03*
X180110000Y-84887500D03*
X180110000Y-86157500D03*
X180110000Y-87427500D03*
X185050000Y-87427500D03*
X185050000Y-86157500D03*
X185050000Y-84887500D03*
X185050000Y-83617500D03*
%TD*%
D19*
%TO.C,R29*%
X186752500Y-67762500D03*
X187947500Y-67762500D03*
%TD*%
D38*
%TO.C,C25*%
X124218000Y-66283500D03*
X124218000Y-68358500D03*
%TD*%
D21*
%TO.C,U19*%
X204550500Y-150899500D03*
X203900500Y-150899500D03*
X203240500Y-150899500D03*
X202590500Y-150899500D03*
X202590500Y-153599500D03*
X203240500Y-153599500D03*
X203900500Y-153599500D03*
X204550500Y-153599500D03*
%TD*%
D17*
%TO.C,R54*%
X121300000Y-98250000D03*
X121300000Y-96250000D03*
%TD*%
%TO.C,R42*%
X120662000Y-76941000D03*
X120662000Y-74941000D03*
%TD*%
D44*
%TO.C,C27*%
X189700000Y-129187500D03*
X189700000Y-127112500D03*
%TD*%
D63*
%TO.C,Q15*%
X125710000Y-154635000D03*
X124440000Y-154635000D03*
X123170000Y-154635000D03*
X121900000Y-154635000D03*
D64*
X123805000Y-157995000D03*
D65*
X125710000Y-160100000D03*
X124440000Y-160100000D03*
X123170000Y-160100000D03*
X121900000Y-160100000D03*
%TD*%
D17*
%TO.C,R44*%
X117614000Y-76941000D03*
X117614000Y-74941000D03*
%TD*%
D75*
%TO.C,FB2*%
X193550000Y-57625000D03*
X193550000Y-59675000D03*
%TD*%
D14*
%TO.C,J4*%
X231900000Y-148200000D03*
D15*
X231900000Y-153280000D03*
%TD*%
D36*
%TO.C,C2*%
X154225000Y-110200000D03*
X157350000Y-110200000D03*
%TD*%
D50*
%TO.C,R22*%
X93700000Y-114695000D03*
X87600000Y-114695000D03*
%TD*%
%TO.C,R20*%
X93700000Y-140695000D03*
X87600000Y-140695000D03*
%TD*%
D60*
%TO.C,J21*%
X146530000Y-160400000D03*
D69*
X141450000Y-160400000D03*
X136370000Y-160400000D03*
X131290000Y-160400000D03*
%TD*%
D41*
%TO.C,Q18*%
X205025000Y-94995000D03*
X205025000Y-96265000D03*
X205025000Y-97535000D03*
X205025000Y-98805000D03*
D42*
X208385000Y-96900000D03*
D43*
X210490000Y-94995000D03*
X210490000Y-96265000D03*
X210490000Y-97535000D03*
X210490000Y-98805000D03*
%TD*%
D22*
%TO.C,H7*%
X74600000Y-164000000D03*
X75302944Y-162302944D03*
X75302944Y-165697056D03*
X77000000Y-161600000D03*
D23*
X77000000Y-164000000D03*
D22*
X77000000Y-166400000D03*
X78697056Y-162302944D03*
X78697056Y-165697056D03*
X79400000Y-164000000D03*
%TD*%
D21*
%TO.C,U5*%
X91010000Y-106095000D03*
X90360000Y-106095000D03*
X89700000Y-106095000D03*
X89050000Y-106095000D03*
X89050000Y-108795000D03*
X89700000Y-108795000D03*
X90360000Y-108795000D03*
X91010000Y-108795000D03*
%TD*%
D67*
%TO.C,C54*%
X184657000Y-70211500D03*
X186732000Y-70211500D03*
%TD*%
D76*
%TO.C,U17*%
X195500000Y-101660000D03*
X195500000Y-101010000D03*
X195500000Y-100350000D03*
X195500000Y-99700000D03*
X192800000Y-99700000D03*
X192800000Y-100350000D03*
X192800000Y-101010000D03*
X192800000Y-101660000D03*
%TD*%
D21*
%TO.C,U21*%
X203364000Y-115058000D03*
X202714000Y-115058000D03*
X202054000Y-115058000D03*
X201404000Y-115058000D03*
X201404000Y-117758000D03*
X202054000Y-117758000D03*
X202714000Y-117758000D03*
X203364000Y-117758000D03*
%TD*%
D44*
%TO.C,C33*%
X124850000Y-137450000D03*
X124850000Y-135375000D03*
%TD*%
%TO.C,C24*%
X124320000Y-85670500D03*
X124320000Y-83595500D03*
%TD*%
D77*
%TO.C,K1*%
X136450000Y-136510000D03*
X136450000Y-133970000D03*
X136450000Y-126350000D03*
X136450000Y-118730000D03*
%TD*%
D16*
%TO.C,R7*%
X108000000Y-156000000D03*
X106000000Y-156000000D03*
%TD*%
D51*
%TO.C,C5*%
X145525000Y-110050000D03*
X143450000Y-110050000D03*
%TD*%
D14*
%TO.C,J15*%
X79400000Y-109560000D03*
D15*
X79400000Y-114640000D03*
%TD*%
D44*
%TO.C,C1*%
X150900000Y-118775000D03*
X150900000Y-116700000D03*
%TD*%
D60*
%TO.C,J8*%
X194080000Y-160200000D03*
D69*
X189000000Y-160200000D03*
X183920000Y-160200000D03*
X178840000Y-160200000D03*
%TD*%
D16*
%TO.C,R59*%
X120550000Y-128650000D03*
X118550000Y-128650000D03*
%TD*%
D13*
%TO.C,R10*%
X166050000Y-84100000D03*
X166050000Y-86100000D03*
%TD*%
D14*
%TO.C,J5*%
X231704000Y-111258000D03*
D15*
X231704000Y-116338000D03*
%TD*%
D22*
%TO.C,H5*%
X74600000Y-47000000D03*
X75302944Y-45302944D03*
X75302944Y-48697056D03*
X77000000Y-44600000D03*
D23*
X77000000Y-47000000D03*
D22*
X77000000Y-49400000D03*
X78697056Y-45302944D03*
X78697056Y-48697056D03*
X79400000Y-47000000D03*
%TD*%
D45*
%TO.C,R4*%
X206454000Y-132925000D03*
X208454000Y-132925000D03*
%TD*%
D78*
%TO.C,U12*%
X136641000Y-50924000D03*
X136641000Y-52194000D03*
X136641000Y-53464000D03*
X136641000Y-54734000D03*
X136641000Y-56004000D03*
X136641000Y-57274000D03*
X136641000Y-58544000D03*
X136641000Y-59814000D03*
X136641000Y-61084000D03*
X136641000Y-62354000D03*
X136641000Y-63624000D03*
X136641000Y-64894000D03*
X136641000Y-66164000D03*
X136641000Y-67434000D03*
D79*
X139676000Y-68684000D03*
X140946000Y-68684000D03*
X142216000Y-68684000D03*
X143486000Y-68684000D03*
X144756000Y-68684000D03*
X146026000Y-68684000D03*
X147296000Y-68684000D03*
X148566000Y-68684000D03*
X149836000Y-68684000D03*
X151106000Y-68684000D03*
D78*
X154141000Y-67434000D03*
X154141000Y-66164000D03*
X154141000Y-64894000D03*
X154141000Y-63624000D03*
X154141000Y-62354000D03*
X154141000Y-61084000D03*
X154141000Y-59814000D03*
X154141000Y-58544000D03*
X154141000Y-57274000D03*
X154141000Y-56004000D03*
X154141000Y-54734000D03*
X154141000Y-53464000D03*
X154141000Y-52194000D03*
X154141000Y-50924000D03*
%TD*%
D50*
%TO.C,R23*%
X93700000Y-127695000D03*
X87600000Y-127695000D03*
%TD*%
D80*
%TO.C,Q19*%
X128925000Y-130050000D03*
X128925000Y-131950000D03*
X130800000Y-131000000D03*
%TD*%
D14*
%TO.C,J1*%
X146120000Y-130100000D03*
D15*
X151200000Y-130100000D03*
%TD*%
D41*
%TO.C,Q5*%
X102575000Y-77600000D03*
X102575000Y-76330000D03*
X102575000Y-75060000D03*
X102575000Y-73790000D03*
D42*
X99215000Y-75695000D03*
D43*
X97110000Y-77600000D03*
X97110000Y-76330000D03*
X97110000Y-75060000D03*
X97110000Y-73790000D03*
%TD*%
M02*
