%TF.GenerationSoftware,KiCad,Pcbnew,8.0.1*%
%TF.CreationDate,2026-02-13T23:09:19+01:00*%
%TF.ProjectId,PowerBox2.2 KICAD,506f7765-7242-46f7-9832-2e32204b4943,rev?*%
%TF.SameCoordinates,Original*%
%TF.FileFunction,Soldermask,Bot*%
%TF.FilePolarity,Negative*%
%FSLAX46Y46*%
G04 Gerber Fmt 4.6, Leading zero omitted, Abs format (unit mm)*
G04 Created by KiCad (PCBNEW 8.0.1) date 2026-02-13 23:09:19*
%MOMM*%
%LPD*%
G01*
G04 APERTURE LIST*
G04 Aperture macros list*
%AMRoundRect*
0 Rectangle with rounded corners*
0 $1 Rounding radius*
0 $2 $3 $4 $5 $6 $7 $8 $9 X,Y pos of 4 corners*
0 Add a 4 corners polygon primitive as box body*
4,1,4,$2,$3,$4,$5,$6,$7,$8,$9,$2,$3,0*
0 Add four circle primitives for the rounded corners*
1,1,$1+$1,$2,$3*
1,1,$1+$1,$4,$5*
1,1,$1+$1,$6,$7*
1,1,$1+$1,$8,$9*
0 Add four rect primitives between the rounded corners*
20,1,$1+$1,$2,$3,$4,$5,0*
20,1,$1+$1,$4,$5,$6,$7,0*
20,1,$1+$1,$6,$7,$8,$9,0*
20,1,$1+$1,$8,$9,$2,$3,0*%
G04 Aperture macros list end*
%ADD10R,3.000000X3.000000*%
%ADD11C,3.000000*%
%ADD12C,0.800000*%
%ADD13C,6.400000*%
%ADD14C,5.120000*%
%ADD15RoundRect,0.102000X-2.458000X-2.458000X2.458000X-2.458000X2.458000X2.458000X-2.458000X2.458000X0*%
%ADD16O,1.504000X2.804000*%
%ADD17R,2.200000X2.200000*%
%ADD18C,2.200000*%
%ADD19C,0.500000*%
%ADD20C,1.422400*%
%ADD21C,2.819400*%
%ADD22RoundRect,0.102000X-0.965000X-0.965000X0.965000X-0.965000X0.965000X0.965000X-0.965000X0.965000X0*%
%ADD23C,2.134000*%
%ADD24R,2.600000X2.600000*%
%ADD25C,2.600000*%
%ADD26C,1.854000*%
G04 APERTURE END LIST*
D10*
%TO.C,J12*%
X79400000Y-96560000D03*
D11*
X79400000Y-101640000D03*
%TD*%
D12*
%TO.C,H6*%
X229600000Y-47000000D03*
X230302944Y-45302944D03*
X230302944Y-48697056D03*
X232000000Y-44600000D03*
D13*
X232000000Y-47000000D03*
D12*
X232000000Y-49400000D03*
X233697056Y-45302944D03*
X233697056Y-48697056D03*
X234400000Y-47000000D03*
%TD*%
D10*
%TO.C,J7*%
X231900000Y-99700000D03*
D11*
X231900000Y-94620000D03*
%TD*%
D14*
%TO.C,J24*%
X88200000Y-155800000D03*
D15*
X99100000Y-155800000D03*
D16*
X103100000Y-164700000D03*
X84200000Y-164700000D03*
%TD*%
D17*
%TO.C,J6*%
X96650000Y-46750000D03*
D18*
X94110000Y-46750000D03*
X91570000Y-46750000D03*
X89030000Y-46750000D03*
%TD*%
D10*
%TO.C,J13*%
X79400000Y-83560000D03*
D11*
X79400000Y-88640000D03*
%TD*%
D19*
%TO.C,U22*%
X150700000Y-111100000D03*
X149750000Y-111100000D03*
X148800000Y-111100000D03*
X151650000Y-112050000D03*
X150700000Y-112050000D03*
X149750000Y-112050000D03*
X148800000Y-112050000D03*
X147850000Y-112050000D03*
X150700000Y-113000000D03*
X149750000Y-113000000D03*
X148800000Y-113000000D03*
%TD*%
D10*
%TO.C,J17*%
X79400000Y-135560000D03*
D11*
X79400000Y-140640000D03*
%TD*%
D10*
%TO.C,J19*%
X231900000Y-73324000D03*
D11*
X231900000Y-68244000D03*
%TD*%
D10*
%TO.C,J3*%
X231838000Y-130385000D03*
D11*
X231838000Y-135465000D03*
%TD*%
D12*
%TO.C,H8*%
X229600000Y-164000000D03*
X230302944Y-162302944D03*
X230302944Y-165697056D03*
X232000000Y-161600000D03*
D13*
X232000000Y-164000000D03*
D12*
X232000000Y-166400000D03*
X233697056Y-162302944D03*
X233697056Y-165697056D03*
X234400000Y-164000000D03*
%TD*%
D17*
%TO.C,J9*%
X168550000Y-77050000D03*
D18*
X168550000Y-74510000D03*
X168550000Y-71970000D03*
X168550000Y-69430000D03*
X168550000Y-66890000D03*
X168550000Y-64350000D03*
X168550000Y-61810000D03*
X168550000Y-59270000D03*
%TD*%
D10*
%TO.C,J14*%
X79400000Y-122560000D03*
D11*
X79400000Y-127640000D03*
%TD*%
D10*
%TO.C,J18*%
X231900000Y-61132000D03*
D11*
X231900000Y-56052000D03*
%TD*%
D10*
%TO.C,J23*%
X79400000Y-70560000D03*
D11*
X79400000Y-75640000D03*
%TD*%
D20*
%TO.C,J22*%
X186319998Y-52710000D03*
X188819998Y-52710000D03*
X188819998Y-50709999D03*
X186319998Y-50709999D03*
D21*
X193589996Y-48000000D03*
X181550000Y-48000000D03*
%TD*%
D10*
%TO.C,J2*%
X79400000Y-57560000D03*
D11*
X79400000Y-62640000D03*
%TD*%
D17*
%TO.C,J11*%
X182310000Y-103450000D03*
D18*
X179770000Y-103450000D03*
X177230000Y-103450000D03*
X174690000Y-103450000D03*
X172150000Y-103450000D03*
X169610000Y-103450000D03*
X167070000Y-103450000D03*
X164530000Y-103450000D03*
%TD*%
D22*
%TO.C,U6*%
X132800000Y-51400000D03*
D23*
X132800000Y-53940000D03*
X132800000Y-56480000D03*
X132800000Y-59020000D03*
X132800000Y-61560000D03*
X132800000Y-64100000D03*
X132800000Y-66640000D03*
X132800000Y-69180000D03*
X132800000Y-71720000D03*
X132800000Y-74260000D03*
X132800000Y-76800000D03*
X132800000Y-79340000D03*
X132800000Y-81880000D03*
X132800000Y-84420000D03*
X132800000Y-86960000D03*
X158200000Y-86960000D03*
X158200000Y-84420000D03*
X158200000Y-81880000D03*
X158200000Y-79340000D03*
X158200000Y-76800000D03*
X158200000Y-74260000D03*
X158200000Y-71720000D03*
X158200000Y-69180000D03*
X158200000Y-66640000D03*
X158200000Y-64100000D03*
X158200000Y-61560000D03*
X158200000Y-59020000D03*
X158200000Y-56480000D03*
X158200000Y-53940000D03*
D22*
X158200000Y-51400000D03*
%TD*%
D24*
%TO.C,J16*%
X170680000Y-160300000D03*
D25*
X165600000Y-160300000D03*
X160520000Y-160300000D03*
X155440000Y-160300000D03*
%TD*%
D17*
%TO.C,J25*%
X208575000Y-47250000D03*
D18*
X206035000Y-47250000D03*
X203495000Y-47250000D03*
X200955000Y-47250000D03*
%TD*%
D10*
%TO.C,J20*%
X231900000Y-86151000D03*
D11*
X231900000Y-81071000D03*
%TD*%
D17*
%TO.C,J10*%
X162070000Y-134100000D03*
D18*
X164610000Y-134100000D03*
X167150000Y-134100000D03*
X169690000Y-134100000D03*
X172230000Y-134100000D03*
X174770000Y-134100000D03*
X177310000Y-134100000D03*
X179850000Y-134100000D03*
%TD*%
D10*
%TO.C,J4*%
X231900000Y-148200000D03*
D11*
X231900000Y-153280000D03*
%TD*%
D24*
%TO.C,J21*%
X146530000Y-160400000D03*
D25*
X141450000Y-160400000D03*
X136370000Y-160400000D03*
X131290000Y-160400000D03*
%TD*%
D12*
%TO.C,H7*%
X74600000Y-164000000D03*
X75302944Y-162302944D03*
X75302944Y-165697056D03*
X77000000Y-161600000D03*
D13*
X77000000Y-164000000D03*
D12*
X77000000Y-166400000D03*
X78697056Y-162302944D03*
X78697056Y-165697056D03*
X79400000Y-164000000D03*
%TD*%
D26*
%TO.C,K1*%
X136450000Y-136510000D03*
X136450000Y-133970000D03*
X136450000Y-126350000D03*
X136450000Y-118730000D03*
%TD*%
D10*
%TO.C,J15*%
X79400000Y-109560000D03*
D11*
X79400000Y-114640000D03*
%TD*%
D24*
%TO.C,J8*%
X194080000Y-160200000D03*
D25*
X189000000Y-160200000D03*
X183920000Y-160200000D03*
X178840000Y-160200000D03*
%TD*%
D10*
%TO.C,J5*%
X231704000Y-111258000D03*
D11*
X231704000Y-116338000D03*
%TD*%
D12*
%TO.C,H5*%
X74600000Y-47000000D03*
X75302944Y-45302944D03*
X75302944Y-48697056D03*
X77000000Y-44600000D03*
D13*
X77000000Y-47000000D03*
D12*
X77000000Y-49400000D03*
X78697056Y-45302944D03*
X78697056Y-48697056D03*
X79400000Y-47000000D03*
%TD*%
D10*
%TO.C,J1*%
X146120000Y-130100000D03*
D11*
X151200000Y-130100000D03*
%TD*%
M02*
