M48
; DRILL file {KiCad 8.0.1} date 2025-12-10T18:54:55+0100
; FORMAT={-:-/ absolute / inch / decimal}
; #@! TF.CreationDate,2025-12-10T18:54:55+01:00
; #@! TF.GenerationSoftware,Kicad,Pcbnew,8.0.1
; #@! TF.FileFunction,Plated,1,2,PTH
FMAT,2
INCH
; #@! TA.AperFunction,Plated,PTH,ComponentDrill
T1C0.0079
; #@! TA.AperFunction,Plated,PTH,ViaDrill
T2C0.0118
; #@! TA.AperFunction,Plated,PTH,ViaDrill
T3C0.0157
; #@! TA.AperFunction,Plated,PTH,ComponentDrill
T4C0.0197
; #@! TA.AperFunction,Plated,PTH,ComponentDrill
T5C0.0236
; #@! TA.AperFunction,Plated,PTH,ViaDrill
T6C0.0315
; #@! TA.AperFunction,Plated,PTH,ComponentDrill
T7C0.0350
; #@! TA.AperFunction,Plated,PTH,ComponentDrill
T8C0.0360
; #@! TA.AperFunction,Plated,PTH,ComponentDrill
T9C0.0433
; #@! TA.AperFunction,Plated,PTH,ComponentDrill
T10C0.0512
; #@! TA.AperFunction,Plated,PTH,ComponentDrill
T11C0.0598
; #@! TA.AperFunction,Plated,PTH,ComponentDrill
T12C0.0910
; #@! TA.AperFunction,Plated,PTH,ComponentDrill
T13C0.1260
; #@! TA.AperFunction,Plated,PTH,ComponentDrill
T14C0.1535
%
G90
G05
T1
X5.8209Y-4.4114
X5.8583Y-4.374
X5.8583Y-4.4114
X5.8583Y-4.4488
X5.8957Y-4.374
X5.8957Y-4.4114
X5.8957Y-4.4488
X5.9331Y-4.374
X5.9331Y-4.4114
X5.9331Y-4.4488
X5.9705Y-4.4114
T2
X4.0315Y-2.3346
X4.0433Y-2.8583
X4.0433Y-3.3583
X4.0433Y-4.8898
X4.0472Y-3.874
X4.0472Y-5.4016
X4.0512Y-4.378
X4.9528Y-3.0315
X5.0039Y-3.3228
X5.0138Y-4.1142
X5.0866Y-1.9803
X5.1102Y-2.4961
X5.1102Y-2.8228
X5.1102Y-2.8228
X6.9957Y-3.5571
X7.002Y-3.3597
X7.4862Y-5.6083
X7.5591Y-3.7992
X7.624Y-5.75
X7.6378Y-4.7795
X7.6378Y-4.9016
X7.7047Y-4.1142
X7.7047Y-4.8701
X7.7126Y-4.6575
X7.7441Y-3.6102
X7.7598Y-3.8386
X7.7598Y-4.1535
X7.8819Y-4.4606
X7.9488Y-5.5
X7.9724Y-5.5866
X8.1102Y-4.4764
X8.1614Y-5.9134
X8.2283Y-4.4803
X8.2283Y-5.9134
T3
X2.9488Y-2.6378
X2.9488Y-3.1496
X2.9488Y-3.6732
X2.9488Y-3.6732
X2.9488Y-4.1772
X2.9488Y-4.689
X2.9488Y-5.2047
X3.0079Y-2.685
X3.0079Y-3.189
X3.0079Y-3.7047
X3.0079Y-3.7047
X3.0079Y-4.2227
X3.0079Y-4.2227
X3.0079Y-4.7283
X3.0079Y-5.2441
X3.1496Y-5.8287
X3.2815Y-5.7972
X3.2913Y-5.8878
X3.3957Y-2.248
X3.4528Y-3.7165
X3.4528Y-4.7441
X3.4567Y-4.2402
X3.4567Y-5.252
X3.4685Y-2.7638
X3.5118Y-4.626
X3.5118Y-5.6457
X3.5157Y-2.6142
X3.5157Y-4.1102
X3.5157Y-5.1378
X3.5197Y-3.6024
X3.5276Y-3.126
X3.6335Y-2.2488
X3.6343Y-2.0472
X3.7047Y-3.8287
X3.7067Y-3.6752
X3.7067Y-4.3366
X3.7087Y-4.1831
X3.7087Y-4.8465
X3.7106Y-3.3189
X3.7106Y-4.6929
X3.7126Y-2.8012
X3.7126Y-3.1654
X3.7126Y-5.3602
X3.7126Y-5.8681
X3.7146Y-2.6476
X3.7146Y-5.2067
X3.7146Y-5.7146
X3.8563Y-2.248
X3.8571Y-2.0465
X3.8681Y-3.8287
X3.8701Y-3.6752
X3.8701Y-4.3366
X3.872Y-4.1831
X3.872Y-4.8465
X3.874Y-3.3189
X3.874Y-4.6929
X3.876Y-2.8012
X3.876Y-3.1654
X3.876Y-5.3602
X3.876Y-5.8681
X3.878Y-2.6476
X3.878Y-5.2067
X3.878Y-5.7146
X4.1457Y-6.0512
X4.311Y-1.8504
X4.5512Y-3.8543
X4.5531Y-5.0492
X4.5591Y-5.2539
X4.5624Y-4.4578
X4.5664Y-4.3081
X4.5681Y-3.4068
X4.5709Y-3.5056
X4.5906Y-2.1398
X4.5906Y-6.0512
X4.6299Y-3.0906
X4.631Y-4.8839
X4.6811Y-2.5354
X4.6811Y-5.2854
X4.6831Y-4.4744
X4.7165Y-3.8681
X4.748Y-2.1398
X4.751Y-4.9048
X4.752Y-3.1063
X4.7657Y-5.4921
X4.7697Y-1.8484
X4.813Y-4.1299
X4.8327Y-4.0118
X4.874Y-2.7638
X4.8839Y-3.6083
X4.8858Y-2.1398
X4.8937Y-3.2165
X4.939Y-1.9744
X4.9449Y-2.7598
X4.9843Y-5.3307
X4.985Y-1.825
X4.9882Y-5.252
X5.0118Y-5.0197
X5.0315Y-2.0748
X5.0748Y-5.252
X5.14Y-1.975
X5.1437Y-4.0945
X5.1457Y-3.5157
X5.1496Y-3.6083
X5.2815Y-4.2303
X5.4606Y-2.3346
X5.4606Y-2.3976
X5.465Y-2.92
X5.4724Y-2.4488
X5.4777Y-4.0094
X5.4777Y-4.0606
X5.4961Y-2.4961
X5.5197Y-3.7638
X5.52Y-2.5433
X5.5492Y-4.0098
X5.5492Y-4.061
X5.5709Y-2.5827
X5.5851Y-4.3337
X5.5901Y-4.4872
X5.6Y-1.995
X5.622Y-3.0
X5.6299Y-2.8346
X5.67Y-1.97
X5.7136Y-4.6949
X5.8661Y-2.8346
X5.8661Y-3.0
X5.8799Y-4.5482
X5.9Y-2.02
X5.9163Y-4.2687
X5.9409Y-4.7372
X5.95Y-2.555
X5.965Y-2.465
X6.0Y-2.115
X6.0Y-2.26
X6.0Y-2.41
X6.2382Y-3.6102
X6.2549Y-4.3406
X6.2549Y-4.4862
X6.2795Y-2.1732
X6.305Y-2.345
X6.3484Y-3.2421
X6.4213Y-3.1575
X6.4268Y-1.9677
X6.4603Y-4.5831
X6.4685Y-4.7402
X6.5115Y-4.587
X6.5866Y-2.2283
X6.752Y-3.1201
X6.7579Y-3.2244
X6.7854Y-3.3051
X6.9094Y-2.4154
X6.9469Y-2.1398
X6.9862Y-2.4154
X7.0039Y-2.7721
X7.0197Y-3.7697
X7.0217Y-3.7185
X7.0374Y-2.6048
X7.0787Y-2.4966
X7.0846Y-2.8607
X7.1142Y-2.6673
X7.1299Y-3.7165
X7.1339Y-3.7717
X7.1417Y-2.7682
X7.2185Y-2.7505
X7.2441Y-2.315
X7.2795Y-4.6555
X7.3386Y-2.5497
X7.3602Y-2.8391
X7.4252Y-2.7662
X7.4449Y-2.6462
X7.4488Y-5.4193
X7.4528Y-4.6555
X7.4626Y-4.0453
X7.4843Y-2.717
X7.502Y-4.8051
X7.502Y-4.8937
X7.5157Y-3.9724
X7.5315Y-4.1969
X7.5709Y-2.4158
X7.5984Y-4.063
X7.6339Y-4.5315
X7.6378Y-4.1772
X7.6516Y-3.6909
X7.685Y-5.6614
X7.685Y-5.7126
X7.685Y-5.7638
X7.7362Y-4.2953
X7.7362Y-4.3465
X7.7362Y-4.3976
X7.7362Y-4.4508
X7.75Y-5.7126
X7.75Y-5.7638
X7.75Y-5.815
X7.7992Y-4.2953
X7.7992Y-4.3465
X7.7992Y-4.3976
X7.7992Y-4.4508
X7.8169Y-3.939
X7.8189Y-5.7126
X7.8189Y-5.7638
X7.8189Y-5.815
X7.8661Y-4.9685
X7.8685Y-4.897
X7.9016Y-5.3524
X7.9173Y-4.9685
X7.9197Y-4.897
X7.9685Y-4.9685
X7.9709Y-4.897
X8.0079Y-4.7323
X8.0217Y-4.9685
X8.024Y-4.897
T4
X2.937Y-1.8504
X2.937Y-6.4567
X2.9647Y-1.7836
X2.9647Y-1.9172
X2.9647Y-6.3899
X2.9647Y-6.5235
X3.0315Y-1.7559
X3.0315Y-1.9449
X3.0315Y-6.3622
X3.0315Y-6.5512
X3.0983Y-1.7836
X3.0983Y-1.9172
X3.0983Y-6.3899
X3.0983Y-6.5235
X3.126Y-1.8504
X3.126Y-6.4567
X9.0394Y-1.8504
X9.0394Y-6.4567
X9.067Y-1.7836
X9.067Y-1.9172
X9.067Y-6.3899
X9.067Y-6.5235
X9.1339Y-1.7559
X9.1339Y-1.9449
X9.1339Y-6.3622
X9.1339Y-6.5512
X9.2007Y-1.7836
X9.2007Y-1.9172
X9.2007Y-6.3899
X9.2007Y-6.5235
X9.2283Y-1.8504
X9.2283Y-6.4567
T6
X7.313Y-2.3469
T7
X5.2283Y-2.0236
X5.2283Y-2.1236
X5.2283Y-2.2236
X5.2283Y-2.3236
X5.2283Y-2.4236
X5.2283Y-2.5236
X5.2283Y-2.6236
X5.2283Y-2.7236
X5.2283Y-2.8236
X5.2283Y-2.9236
X5.2283Y-3.0236
X5.2283Y-3.1236
X5.2283Y-3.2236
X5.2283Y-3.3236
X5.2283Y-3.4236
X6.2283Y-2.0236
X6.2283Y-2.1236
X6.2283Y-2.2236
X6.2283Y-2.3236
X6.2283Y-2.4236
X6.2283Y-2.5236
X6.2283Y-2.6236
X6.2283Y-2.7236
X6.2283Y-2.8236
X6.2283Y-2.9236
X6.2283Y-3.0236
X6.2283Y-3.1236
X6.2283Y-3.2236
X6.2283Y-3.3236
X6.2283Y-3.4236
T8
X7.3354Y-1.9965
X7.3354Y-2.0752
X7.4339Y-1.9965
X7.4339Y-2.0752
T9
X3.5051Y-1.8406
X3.6051Y-1.8406
X3.7051Y-1.8406
X3.8051Y-1.8406
X5.372Y-4.6744
X5.372Y-4.9744
X5.372Y-5.2744
X5.372Y-5.3744
X6.3807Y-5.2795
X6.4776Y-4.0728
X6.4807Y-5.2795
X6.5776Y-4.0728
X6.5807Y-5.2795
X6.6358Y-2.3335
X6.6358Y-2.4335
X6.6358Y-2.5335
X6.6358Y-2.6335
X6.6358Y-2.7335
X6.6358Y-2.8335
X6.6358Y-2.9335
X6.6358Y-3.0335
X6.6776Y-4.0728
X6.6807Y-5.2795
X6.7776Y-4.0728
X6.7807Y-5.2795
X6.8776Y-4.0728
X6.8807Y-5.2795
X6.9776Y-4.0728
X6.9807Y-5.2795
X7.0776Y-4.0728
X7.0807Y-5.2795
X7.1776Y-4.0728
X7.9116Y-1.8602
X8.0116Y-1.8602
X8.1116Y-1.8602
X8.2116Y-1.8602
T10
X5.1689Y-6.315
X5.3689Y-6.315
X5.5689Y-6.315
X5.7689Y-6.315
X6.1197Y-6.311
X6.3197Y-6.311
X6.5197Y-6.311
X6.7197Y-6.311
X7.0409Y-6.3071
X7.2409Y-6.3071
X7.4409Y-6.3071
X7.6409Y-6.3071
T11
X3.126Y-2.2661
X3.126Y-2.4661
X3.126Y-2.778
X3.126Y-2.978
X3.126Y-3.2898
X3.126Y-3.4898
X3.126Y-3.8016
X3.126Y-4.0016
X3.126Y-4.3134
X3.126Y-4.5134
X3.126Y-4.8252
X3.126Y-5.0252
X3.126Y-5.337
X3.126Y-5.537
X5.7528Y-5.122
X5.9528Y-5.122
X9.1222Y-4.3802
X9.1222Y-4.5802
X9.1275Y-5.1333
X9.1275Y-5.3333
X9.1299Y-2.2068
X9.1299Y-2.4068
X9.1299Y-2.6868
X9.1299Y-2.8868
X9.1299Y-3.1918
X9.1299Y-3.3918
X9.1299Y-3.7252
X9.1299Y-3.9252
X9.1299Y-5.8346
X9.1299Y-6.0346
T12
X7.1476Y-1.8898
X7.6217Y-1.8898
T13
X3.0315Y-1.8504
X3.0315Y-6.4567
X9.1339Y-1.8504
X9.1339Y-6.4567
T14
X3.4724Y-6.1339
X3.9016Y-6.1339
T5
G00X3.315Y-6.4646
M15
G01X3.315Y-6.5039
M16
G05
G00X4.0591Y-6.4646
M15
G01X4.0591Y-6.5039
M16
G05
M30
