M48
; DRILL file {KiCad 8.0.1} date 2025-12-10T21:43:10+0100
; FORMAT={-:-/ absolute / inch / decimal}
; #@! TF.CreationDate,2025-12-10T21:43:10+01:00
; #@! TF.GenerationSoftware,Kicad,Pcbnew,8.0.1
; #@! TF.FileFunction,Plated,1,4,PTH
FMAT,2
INCH
; #@! TA.AperFunction,Plated,PTH,ViaDrill
T1C0.0118
; #@! TA.AperFunction,Plated,PTH,ComponentDrill
T2C0.0118
; #@! TA.AperFunction,Plated,PTH,ViaDrill
T3C0.0236
; #@! TA.AperFunction,Plated,PTH,ComponentDrill
T4C0.0362
; #@! TA.AperFunction,Plated,PTH,ComponentDrill
T5C0.0374
; #@! TA.AperFunction,Plated,PTH,ComponentDrill
T6C0.0433
; #@! TA.AperFunction,Plated,PTH,ComponentDrill
T7C0.0598
; #@! TA.AperFunction,Plated,PTH,ComponentDrill
T8C0.0728
; #@! TA.AperFunction,Plated,PTH,ComponentDrill
T9C0.0917
; #@! TA.AperFunction,Plated,PTH,ComponentDrill
T10C0.1260
%
G90
G05
T1
X0.9203Y-1.554
X0.9203Y-1.62
X0.9213Y-1.6859
X0.9301Y-1.3858
X1.0Y-1.6889
X1.0817Y-1.6869
X1.0827Y-1.554
X1.0827Y-1.62
X1.2008Y-3.25
X1.2244Y-3.125
X1.2992Y-1.4892
X1.3863Y-2.4232
X1.3873Y-2.4626
X1.3873Y-2.501
X1.3917Y-3.173
X1.4267Y-2.4232
X1.4277Y-2.4626
X1.4277Y-2.501
X1.4596Y-3.5512
X1.5039Y-2.8551
X1.563Y-1.5354
X1.6004Y-2.8551
X1.6024Y-3.5512
X1.6156Y-2.4252
X1.6166Y-2.4646
X1.6166Y-2.503
X1.6373Y-2.2933
X1.6393Y-2.6555
X1.6457Y-2.2126
X1.656Y-2.4252
X1.657Y-2.4646
X1.657Y-2.503
X1.6722Y-3.1986
X1.9646Y-2.4449
X2.0394Y-2.5236
X2.0827Y-2.4803
X2.1102Y-0.9764
X2.1102Y-2.5945
X2.1427Y-2.065
X2.1644Y-1.4715
X2.2008Y-2.9528
X2.2028Y-1.4715
X2.3504Y-2.126
X2.3976Y-1.8504
X2.4291Y-2.3061
X2.4488Y-1.7283
X2.4528Y-1.8661
X2.4956Y-2.9532
X2.5039Y-2.6939
X2.5394Y-2.3307
X2.5414Y-1.8523
X2.5634Y-1.8709
X2.5636Y-1.7302
X2.5852Y-1.8503
X2.6417Y-2.6732
X2.6457Y-2.748
X2.6772Y-1.6929
X2.685Y-1.9843
X2.7441Y-1.7165
X2.7441Y-1.9843
X2.7697Y-2.1093
X2.8228Y-0.9803
X2.8524Y-1.4675
X2.8907Y-1.4675
X2.9055Y-2.5931
X2.9085Y-2.7559
X2.9094Y-2.7096
X2.9124Y-2.8553
X2.9341Y-3.1398
X2.9764Y-2.1693
X2.9803Y-1.8346
X2.9843Y-3.0433
X3.0Y-2.5699
X3.002Y-2.4616
X3.064Y-2.6693
X3.0797Y-2.1781
X3.0906Y-2.0906
X3.126Y-3.2047
X3.1299Y-1.7441
X3.1299Y-1.8819
X3.1437Y-2.373
X3.2165Y-1.8504
X3.2382Y-1.8713
X3.2384Y-1.7283
X3.2429Y-3.0874
X3.2598Y-1.8504
X3.2615Y-3.1296
X3.2992Y-2.4587
X3.3612Y-3.4459
X3.378Y-1.9803
X3.378Y-3.1535
X3.3789Y-3.2992
X3.3996Y-2.2776
X3.437Y-1.7126
X3.437Y-1.9803
X3.437Y-2.4587
X3.4606Y-3.4547
X3.4961Y-0.9724
X3.5226Y-3.1014
X3.5276Y-1.4675
X3.5659Y-1.4675
X3.5876Y-3.2972
X3.6053Y-3.4705
X3.624Y-3.188
X3.6535Y-2.9724
X3.6713Y-2.5994
X3.6772Y-2.3465
X3.69Y-2.6348
X3.7161Y-1.9151
X3.7165Y-2.2362
X3.7283Y-2.7785
X3.7549Y-3.3907
X3.7549Y-3.4291
X3.7549Y-3.5167
X3.7549Y-3.5551
X3.7559Y-3.4685
X3.7559Y-3.5945
X3.7923Y-2.2293
X3.8031Y-1.7559
X3.8031Y-1.8898
X3.8238Y-2.0748
X3.8307Y-2.6614
X3.8366Y-2.6004
X3.8366Y-2.8228
X3.8888Y-1.848
X3.9094Y-1.7323
X3.9098Y-1.8689
X3.9311Y-1.8484
X3.9843Y-2.9961
X3.9961Y-2.7874
X4.0118Y-1.7008
X4.0315Y-1.9843
X4.0344Y-3.2234
X4.0345Y-2.9849
X4.0524Y-2.9665
X4.072Y-2.9469
X4.0866Y-1.7087
X4.0866Y-1.9843
X4.0899Y-2.9285
X4.0945Y-2.4882
X4.0955Y-3.6506
X4.0955Y-3.6909
X4.1339Y-3.6506
X4.1339Y-3.6909
X4.1341Y-3.3583
X4.1732Y-3.6496
X4.1732Y-3.69
X4.1772Y-0.9764
X4.2008Y-2.3425
X4.2008Y-2.8701
X4.2087Y-2.7874
X4.2205Y-1.4715
X4.2303Y-3.2431
X4.2461Y-1.8957
X4.2589Y-1.4715
X4.2756Y-2.2323
X4.2795Y-2.2835
X4.3465Y-2.378
X4.4065Y-3.3337
X4.4173Y-2.7874
X4.4331Y-1.7756
X4.4331Y-1.9173
X4.4409Y-2.5512
X4.4656Y-3.5659
X4.5266Y-1.8583
X4.5472Y-1.7402
X4.5481Y-1.8781
X4.5674Y-3.6339
X4.5679Y-1.8583
X4.5813Y-2.395
X4.6068Y-3.6329
X4.6452Y-3.6329
X4.6496Y-2.6929
X4.6575Y-1.6929
X4.6732Y-1.9803
X4.688Y-3.2456
X4.7062Y-3.3268
X4.7072Y-3.3661
X4.7072Y-3.4045
X4.7323Y-1.7087
X4.7323Y-1.9803
X4.7402Y-2.063
X4.7466Y-3.3268
X4.7475Y-3.3661
X4.7475Y-3.4045
X4.749Y-2.6928
X4.8367Y-2.0729
X4.8435Y-2.6928
X4.8449Y-0.9796
X4.8661Y-2.6299
X4.8868Y-1.4695
X4.8937Y-2.7717
X4.9213Y-2.1811
X4.9252Y-1.4695
X4.9646Y-2.5079
X4.9966Y-3.5266
X4.9966Y-3.565
X4.9975Y-3.6043
X5.0236Y-1.9213
X5.0236Y-2.0315
X5.0246Y-2.872
X5.0266Y-2.1152
X5.0354Y-2.5394
X5.0369Y-3.5266
X5.0369Y-3.565
X5.0379Y-3.6043
X5.0463Y-2.751
X5.0482Y-2.6122
X5.1063Y-1.7677
X5.1063Y-1.9016
X5.1142Y-2.6496
X5.126Y-2.5551
X5.1998Y-1.8565
X5.2008Y-2.6073
X5.2018Y-2.6791
X5.2205Y-1.7402
X5.2206Y-1.8773
X5.2415Y-1.8564
X5.2579Y-2.9823
X5.2707Y-2.4085
X5.2726Y-2.3484
X5.2884Y-3.2372
X5.3228Y-1.6969
X5.3376Y-3.2372
X5.3465Y-1.9803
X5.3809Y-3.2382
X5.3833Y-3.036
X5.4016Y-1.7047
X5.4055Y-1.9803
X5.4104Y-3.0699
X5.4321Y-3.2717
X5.4488Y-2.439
X5.4745Y-3.1496
X5.477Y-3.1249
X5.4834Y-3.1754
X5.4894Y-3.102
X5.5079Y-0.9882
X5.5157Y-2.1142
X5.5236Y-3.2333
X5.5276Y-3.0266
X5.5512Y-2.2913
X5.5591Y-1.4695
X5.5659Y-2.0522
X5.5856Y-3.4626
X5.5866Y-2.439
X5.5974Y-1.4695
X5.6732Y-3.0689
X5.7116Y-3.312
X5.7244Y-2.1929
X5.75Y-2.5167
X5.7657Y-2.2116
X5.7677Y-2.0827
X5.7697Y-3.186
X5.7874Y-1.7677
X5.7874Y-1.9016
X5.811Y-2.9665
X5.812Y-2.6476
X5.812Y-2.8051
X5.8189Y-1.9488
X5.873Y-1.8551
X5.8937Y-1.7406
X5.8937Y-1.8758
X5.9144Y-1.8551
X5.9646Y-2.6476
X5.9646Y-2.8022
X5.9665Y-2.5846
X5.9685Y-1.7244
X5.9695Y-3.5207
X6.0Y-2.0945
X6.0089Y-3.5197
X6.0236Y-1.9764
X6.0472Y-3.5197
X6.0787Y-1.7047
X6.0787Y-1.9764
X6.1181Y-2.2874
X6.1614Y-2.126
X6.189Y-0.9803
X6.2005Y-3.2451
X6.2005Y-3.2854
X6.2005Y-3.4783
X6.2005Y-3.5187
X6.2274Y-1.4675
X6.2362Y-2.4449
X6.2399Y-3.2441
X6.2399Y-3.2844
X6.2399Y-3.4774
X6.2399Y-3.5177
X6.252Y-2.312
X6.2657Y-1.4675
X6.2782Y-3.2441
X6.2782Y-3.2844
X6.2782Y-3.4774
X6.2782Y-3.5177
X6.3297Y-2.1929
X6.3346Y-2.0748
X6.4065Y-3.5207
X6.4459Y-3.5197
X6.4646Y-1.7756
X6.4646Y-1.9134
X6.4843Y-3.5197
X6.5423Y-1.8575
X6.5626Y-1.8777
X6.563Y-1.7409
X6.5837Y-1.8567
X6.6693Y-2.1339
X6.6969Y-1.9843
X6.7559Y-1.7047
X6.7559Y-1.9843
T2
X1.4931Y-3.1407
X1.4931Y-3.1781
X1.4931Y-3.2156
X1.5305Y-3.1033
X1.5305Y-3.1407
X1.5305Y-3.1781
X1.5305Y-3.2156
X1.5305Y-3.253
X1.5679Y-3.1407
X1.5679Y-3.1781
X1.5679Y-3.2156
X3.2402Y-2.6191
X3.2402Y-2.6703
X3.2402Y-2.7215
X3.2402Y-2.7726
X3.2402Y-2.8238
X3.2402Y-2.875
X3.2913Y-2.6191
X3.2913Y-2.6703
X3.2913Y-2.7215
X3.2913Y-2.7726
X3.2913Y-2.8238
X3.2913Y-2.875
X3.3425Y-2.6191
X3.3425Y-2.6703
X3.3425Y-2.7215
X3.3425Y-2.7726
X3.3425Y-2.8238
X3.3425Y-2.875
X3.3937Y-2.6191
X3.3937Y-2.6703
X3.3937Y-2.7215
X3.3937Y-2.7726
X3.3937Y-2.8238
X3.3937Y-2.875
X3.4449Y-2.6191
X3.4449Y-2.6703
X3.4449Y-2.7215
X3.4449Y-2.7726
X3.4449Y-2.8238
X3.4449Y-2.875
X3.4961Y-2.6191
X3.4961Y-2.6703
X3.4961Y-2.7215
X3.4961Y-2.7726
X3.4961Y-2.8238
X3.4961Y-2.875
X4.0797Y-3.4911
X4.1171Y-3.4537
X4.1171Y-3.4911
X4.1171Y-3.5285
X4.1545Y-3.4537
X4.1545Y-3.4911
X4.1545Y-3.5285
X4.1919Y-3.4537
X4.1919Y-3.4911
X4.1919Y-3.5285
X4.2293Y-3.4911
X5.3898Y-2.6083
X5.3898Y-2.6594
X5.3898Y-2.7106
X5.3898Y-2.7618
X5.3898Y-2.813
X5.3898Y-2.8642
X5.4409Y-2.6083
X5.4409Y-2.6594
X5.4409Y-2.7106
X5.4409Y-2.7618
X5.4409Y-2.813
X5.4409Y-2.8642
X5.4921Y-2.6083
X5.4921Y-2.6594
X5.4921Y-2.7106
X5.4921Y-2.7618
X5.4921Y-2.813
X5.4921Y-2.8642
X5.5433Y-2.6083
X5.5433Y-2.6594
X5.5433Y-2.7106
X5.5433Y-2.7618
X5.5433Y-2.813
X5.5433Y-2.8642
X5.5945Y-2.6083
X5.5945Y-2.6594
X5.5945Y-2.7106
X5.5945Y-2.7618
X5.5945Y-2.813
X5.5945Y-2.8642
X5.6457Y-2.6083
X5.6457Y-2.6594
X5.6457Y-2.7106
X5.6457Y-2.7618
X5.6457Y-2.813
X5.6457Y-2.8642
T3
X1.3937Y-1.9488
X2.1811Y-2.2087
X2.8622Y-2.0394
X3.5118Y-2.0394
X4.5157Y-3.0709
X5.8819Y-3.3898
T4
X1.4016Y-1.1949
X1.4016Y-1.2736
X1.5Y-1.1949
X1.5Y-1.2736
T5
X2.5517Y-1.1686
X2.5517Y-1.2473
X2.5517Y-1.326
X2.5517Y-1.4048
X3.221Y-1.1686
X3.221Y-1.2473
X3.221Y-1.326
X3.221Y-1.4048
X3.8903Y-1.1686
X3.8903Y-1.2473
X3.8903Y-1.326
X3.8903Y-1.4048
X4.5595Y-1.1686
X4.5595Y-1.2473
X4.5595Y-1.326
X4.5595Y-1.4048
X5.2288Y-1.1686
X5.2288Y-1.2473
X5.2288Y-1.326
X5.2288Y-1.4048
X5.8981Y-1.1686
X5.8981Y-1.2473
X5.8981Y-1.326
X5.8981Y-1.4048
X6.5674Y-1.1686
X6.5674Y-1.2473
X6.5674Y-1.326
X6.5674Y-1.4048
T6
X6.7874Y-2.1691
X6.7874Y-2.2691
X6.7874Y-2.3691
X6.7874Y-2.4691
X6.7874Y-2.5691
X6.7874Y-2.6691
X6.7874Y-2.7691
X6.7874Y-2.8691
T7
X2.148Y-3.3622
X2.348Y-3.3622
T8
X2.4434Y-1.1489
X2.4434Y-1.4245
X2.6599Y-1.1489
X2.6599Y-1.4245
X3.1127Y-1.1489
X3.1127Y-1.4245
X3.3292Y-1.1489
X3.3292Y-1.4245
X3.782Y-1.1489
X3.782Y-1.4245
X3.9985Y-1.1489
X3.9985Y-1.4245
X4.4513Y-1.1489
X4.4513Y-1.4245
X4.6678Y-1.1489
X4.6678Y-1.4245
X5.1206Y-1.1489
X5.1206Y-1.4245
X5.3371Y-1.1489
X5.3371Y-1.4245
X5.7899Y-1.1489
X5.7899Y-1.4245
X6.0064Y-1.1489
X6.0064Y-1.4245
X6.4592Y-1.1489
X6.4592Y-1.4245
X6.6757Y-1.1489
X6.6757Y-1.4245
T9
X1.2138Y-1.0882
X1.6878Y-1.0882
T10
X0.8799Y-1.1024
X0.8799Y-3.626
X6.9823Y-1.1024
X6.9823Y-3.626
M30
